# xmcd
#
# Track frame offsets: 
#        150
#        29606
#        42636
#        58635
#        78011
#        93524
#        113004
#        131016
#        145170
#        164811
#        180289
#        195461
#
# Disc length: 2960 seconds
#
# Revision: 0
# Processed by: cddbd v1.5.2PL0 Copyright (c) Steve Scherf et al.
# Submitted via: ExactAudioCopy v1.0b3
#
DISCID=a10b8e0c
DTITLE=Sarah Dash - Sarah Dash
DYEAR=1978
DGENRE=Disco
TTITLE0=Sinner Man
TTITLE1=You
TTITLE2=Touch And Go
TTITLE3=I Can't Believe (Someone Like You Could Really Love Me)
TTITLE4=Do It For Love
TTITLE5=Charge It
TTITLE6=Give Your Man A Helping Hand
TTITLE7=Look But Don't Touch
TTITLE8=We're Lovers After All
TTITLE9=(Come And Take This) Candy From Your Baby
TTITLE10=Sinner Man (7")
TTITLE11=(Come And Take This) Candy From Your Baby (12")
EXTD=
EXTT0=
EXTT1=
EXTT2=
EXTT3=
EXTT4=
EXTT5=
EXTT6=
EXTT7=
EXTT8=
EXTT9=
EXTT10=
EXTT11=
PLAYORDER=
